<svg id="Layer_1" data-name="Layer 1" xmlns="http://www.w3.org/2000/svg" viewBox="0 0 139 139"><defs><style>.cls-1{opacity:.5}.cls-2{fill:#efefef}.cls-3{font-size:11.95px;font-family:Gotham-Bold,Gotham;font-weight:700}.cls-3,.cls-5{fill:#063e56}.cls-4{letter-spacing:-.09em}</style></defs><title>icon-email-options</title><g class="cls-1"><rect class="cls-2" width="139" height="139" rx="4" ry="4"/></g><text class="cls-3" transform="translate(22.46 118.01)">EMAIL OP<tspan class="cls-4" x="60.93" y="0">T</tspan><tspan x="67.6" y="0">-INS</tspan></text><path class="cls-5" d="M1421.44 2030.88a1 1 0 0 0-.81-.68l-7.71-1.08-3.44-6.72a1 1 0 0 0-1.76 0l-3.44 6.72-7.71 1.08a1 1 0 0 0-.54 1.7l5.55 5.22-1.31 7.36a1 1 0 0 0 1.42 1.06l6.9-3.5 6.9 3.5a1 1 0 0 0 1.42-1.06l-1.31-7.36 5.55-5.22a1 1 0 0 0 .29-1.02zm-7.57 5.16a1 1 0 0 0-.3.9l1.05 5.93-5.62-2.87a1 1 0 0 0-.89 0l-5.58 2.83 1.05-5.93a1 1 0 0 0-.3-.9l-4.44-4.17 6.17-.86a1 1 0 0 0 .74-.53l2.79-5.45 2.79 5.45a1 1 0 0 0 .74.53l6.17.86z" transform="translate(-1323 -1956)"/><path class="cls-5" d="M1388.15 2019.73a5.54 5.54 0 0 0 7.19 0l23.16-20.45v26.54a1 1 0 1 0 2 0v-28.76a1 1 0 0 0-.06-.33v-.07a1 1 0 0 0-.15-.22l-.08-.08a1 1 0 0 0-.2-.14h-.1a1 1 0 0 0-.35-.07H1364a1 1 0 0 0-.35.07h-.1a.9.9 0 0 0-.2.14l-.08.08a.91.91 0 0 0-.15.22v.07a1 1 0 0 0-.06.33v38.65a1 1 0 0 0 .05.32v.09a.94.94 0 0 0 .14.2l.08.08a.88.88 0 0 0 .2.13h.1a1 1 0 0 0 .35.07h28.74a1 1 0 1 0 0-2h-25.89c4.51-3.57 14.67-11.67 19.89-16.25zm28.73-21.66l-22.88 20.18a3.51 3.51 0 0 1-4.56 0l-2-1.73-.08-.06-20.79-18.36zm-51.88 35.62v-34.41l20.25 17.88c-5.51 4.84-16.25 13.33-20.25 16.53z" transform="translate(-1323 -1956)"/></svg>