<svg id="Layer_1" data-name="Layer 1" xmlns="http://www.w3.org/2000/svg" viewBox="0 0 286.32 36.67"><defs><style>.cls-1,.cls-3{fill:none}.cls-2{clip-path:url(#clip-path)}.cls-3{stroke:#dc5a24;stroke-miterlimit:10;stroke-width:2px}</style><clipPath id="clip-path" transform="translate(-655.34 -1668.68)"><path class="cls-1" d="M654 1661h260v73H654z"/></clipPath></defs><title>icon-waves</title><g class="cls-2" id="recent_experiences_art" data-name="recent experiences art"><path class="cls-3" d="M.66 1.33l13.57 12.01L27.8 1.33l13.57 12.01L54.94 1.33l13.57 12.01L82.08 1.33l13.56 12.01 13.58-12.01 13.56 12.01 13.57-12.01 13.58 12.01L163.5 1.33l13.57 12.01 13.57-12.01 13.57 12.01 13.57-12.01 13.57 12.01 13.58-12.01 13.57 12.01 13.58-12.01 13.58 12.01"/><path class="cls-3" d="M.66 12.34l13.57 12 13.57-12 13.57 12 13.57-12 13.57 12 13.57-12 13.56 12 13.58-12 13.56 12 13.57-12 13.58 12 13.57-12 13.57 12 13.57-12 13.57 12 13.57-12 13.57 12 13.58-12 13.57 12 13.58-12 13.58 12"/><path class="cls-3" d="M.66 23.34l13.57 12 13.57-12 13.57 12 13.57-12 13.57 12 13.57-12 13.56 12 13.58-12 13.56 12 13.57-12 13.58 12 13.57-12 13.57 12 13.57-12 13.57 12 13.57-12 13.57 12 13.58-12 13.57 12 13.58-12 13.58 12"/></g></svg>