<svg id="Layer_1" data-name="Layer 1" xmlns="http://www.w3.org/2000/svg" viewBox="0 0 139 139"><defs><style>.cls-1{opacity:.5}.cls-2{fill:#efefef}.cls-3{font-size:11.95px;font-family:Gotham-Bold,Gotham;font-weight:700}.cls-3,.cls-4{fill:#063e56}</style></defs><title>icon-disclaimers</title><g class="cls-1"><rect class="cls-2" width="139" height="139" rx="4" ry="4"/></g><text class="cls-3" transform="translate(26.45 118.01)">DISCLAIMERS</text><path class="cls-4" d="M1221.86 2046.68h-33.8a4.55 4.55 0 0 1-4.55-4.55v-44a4.55 4.55 0 0 1 4.55-4.55h4.3a.91.91 0 0 1 0 1.82h-4.3a2.73 2.73 0 0 0-2.73 2.73v44a2.73 2.73 0 0 0 2.73 2.73h33.8a2.73 2.73 0 0 0 2.73-2.73v-4.3a.91.91 0 1 1 1.82 0v4.3a4.55 4.55 0 0 1-4.55 4.55z" transform="translate(-1140 -1956)"/><path class="cls-4" d="M1231 2036.92h-33.8a4.55 4.55 0 0 1-4.55-4.55v-44a4.55 4.55 0 0 1 4.55-4.55h24.75a.91.91 0 0 1 0 1.82h-24.75a2.73 2.73 0 0 0-2.73 2.73v44a2.73 2.73 0 0 0 2.73 2.73h33.8a2.73 2.73 0 0 0 2.73-2.73v-34.62a.91.91 0 1 1 1.82 0v34.62a4.55 4.55 0 0 1-4.55 4.55z" transform="translate(-1140 -1956)"/><path class="cls-4" d="M1234.59 1998.66h-12.68a.91.91 0 0 1-.91-.91v-12.69a.91.91 0 1 1 1.82 0v11.78h11.78a.91.91 0 0 1 0 1.82z" transform="translate(-1140 -1956)"/><path class="cls-4" d="M1234.59 1998.66a.91.91 0 0 1-.65-.27l-12.69-13a.91.91 0 0 1 1.3-1.27l12.68 13a.91.91 0 0 1-.65 1.54zm-13.42 25.34h-15.82a3.82 3.82 0 0 1-3.3-1.94 4.31 4.31 0 0 1 .19-4.24l7.9-14a3.85 3.85 0 0 1 3.19-2.2 3.56 3.56 0 0 1 3 2l7.91 14.15a4.43 4.43 0 0 1 .19 4.27 3.82 3.82 0 0 1-3.26 1.96zm-7.83-20.4c-.49 0-1 .44-1.45 1.17l-7.9 13.95a2.55 2.55 0 0 0-.19 2.34 1.84 1.84 0 0 0 1.57.94h15.82a1.84 1.84 0 0 0 1.58-.93 2.31 2.31 0 0 0-.2-2.19l-7.92-14.2c-.4-.68-.86-1.08-1.32-1.08z" transform="translate(-1140 -1956)"/><path class="cls-4" d="M72 61.62h2v2h-2zM72 53h2v8h-2z"/></svg>